<svg width="34" height="34" viewBox="0 0 34 34" fill="none" xmlns="http://www.w3.org/2000/svg">
<path d="M8.69992 19.6316C5.01658 19.6316 2.03325 22.7719 2.03325 26.6491C2.03325 30.5263 5.01658 33.6666 8.69992 33.6666C12.3833 33.6666 15.3666 30.5263 15.3666 26.6491C15.3666 22.7719 12.3833 19.6316 8.69992 19.6316ZM18.6666 19.6316V33.6666H31.9999V19.6316H18.6666ZM8.66658 0.333313L0.333252 16.1228H16.9999L8.66658 0.333313ZM29.0833 1.21051C27.3166 1.21051 26.0666 2.19296 25.3333 3.26314C24.5999 2.19296 23.3499 1.21051 21.5833 1.21051C18.9833 1.21051 16.9999 3.45612 16.9999 6.03507C16.9999 9.54384 21.0333 12.0351 25.3333 16.1228C29.6333 12.0351 33.6666 9.54384 33.6666 6.03507C33.6666 3.45612 31.6833 1.21051 29.0833 1.21051Z" fill="#505050"/>
</svg>
